<?xml version="1.0" encoding="UTF-8" standalone="no"?><!DOCTYPE svg PUBLIC "-//W3C//DTD SVG 1.1//EN" "http://www.w3.org/Graphics/SVG/1.1/DTD/svg11.dtd"><svg width="100%" height="100%" viewBox="0 0 500 500" version="1.1" xmlns="http://www.w3.org/2000/svg" xmlns:xlink="http://www.w3.org/1999/xlink" xml:space="preserve" xmlns:serif="http://www.serif.com/" style="fill-rule:evenodd;clip-rule:evenodd;stroke-linejoin:round;stroke-miterlimit:2;"><rect id="Artboard1" x="0" y="0" width="500" height="500" style="fill:none;"/><g id="Artboard11" serif:id="Artboard1"><circle cx="250" cy="250" r="225"/><g><path d="M214.951,99.696l-89.021,0l-0,300.608l89.021,-0c100.202,-0 159.119,-56.337 159.119,-149.659c0,-94.182 -58.917,-150.949 -159.119,-150.949Zm-58.918,275.665l0,-250.722l58.918,0c85.15,0 128.586,48.166 128.586,126.006c-0,77.41 -43.436,124.716 -128.586,124.716l-58.918,-0Z" style="fill:#fff;fill-rule:nonzero;"/><path d="M188.438,182.63c0.262,78.471 130.546,31.248 132.5,130.345l-24.481,3.448c0,-80.965 -132.523,-29.871 -132.523,-133.239l24.503,-0.786l0.001,0.232Z" style="fill:#dfa94a;fill-rule:nonzero;"/></g></g></svg>