<?xml version="1.0" encoding="UTF-8" standalone="no"?><!DOCTYPE svg PUBLIC "-//W3C//DTD SVG 1.1//EN" "http://www.w3.org/Graphics/SVG/1.1/DTD/svg11.dtd"><svg width="100%" height="100%" viewBox="0 0 500 500" version="1.1" xmlns="http://www.w3.org/2000/svg" xmlns:xlink="http://www.w3.org/1999/xlink" xml:space="preserve" xmlns:serif="http://www.serif.com/" style="fill-rule:evenodd;clip-rule:evenodd;stroke-linejoin:round;stroke-miterlimit:2;"><rect id="Artboard1" x="0" y="0" width="500" height="500" style="fill:none;"/><g id="Artboard11" serif:id="Artboard1"><circle cx="250" cy="250" r="225" style="fill:#fff;"/><g><path d="M214.393,97.304l-90.439,-0l0,305.392l90.439,0c101.797,0 161.653,-57.233 161.653,-152.041c-0,-95.681 -59.856,-153.351 -161.653,-153.351Zm-59.856,280.052l0,-254.712l59.856,-0c86.506,-0 130.633,48.933 130.633,128.011c-0,78.642 -44.127,126.701 -130.633,126.701l-59.856,0Z" style="fill:#1e4174;fill-rule:nonzero;"/><path d="M187.458,181.558c0.266,79.719 132.624,31.745 134.609,132.42l-24.87,3.502c0,-82.254 -134.633,-30.346 -134.633,-135.36l24.893,-0.798l0.001,0.236Z" style="fill:#dfa94a;fill-rule:nonzero;"/></g></g></svg>